<svg width="24" height="24" viewBox="0 0 24 24" fill="none" xmlns="http://www.w3.org/2000/svg">
<path fill-rule="evenodd" clip-rule="evenodd" d="M4.99708 7.97979C4.99808 8.00081 4.99908 8.01891 5 8.03392V11.5858L3.29289 13.2929L3 13.5858V14V17V18H4H8C8 20.2091 9.79086 22 12 22C14.2091 22 16 20.2091 16 18H20H21V17V14V13.5858L20.7071 13.2929L19 11.5858V8.03391C19.0009 8.0189 19.0019 8.00081 19.0029 7.97979C19.0056 7.92309 19.0082 7.84486 19.0088 7.74814C19.0099 7.5551 19.003 7.28603 18.9719 6.96573C18.9101 6.33058 18.7503 5.46414 18.3466 4.58335C17.9395 3.6952 17.2793 2.78315 16.2239 2.09854C15.1675 1.41329 13.7829 1 12 1C10.2171 1 8.83254 1.41329 7.77612 2.09854C6.72068 2.78315 6.0605 3.6952 5.65344 4.58335C5.24974 5.46414 5.08988 6.33058 5.02813 6.96573C4.99699 7.28603 4.99008 7.5551 4.99123 7.74814C4.9918 7.84486 4.99441 7.92309 4.99708 7.97979ZM14 18H10C10 19.1046 10.8954 20 12 20C13.1046 20 14 19.1046 14 18ZM16 16H19V14.4142L17.2929 12.7071L17 12.4142V12V8V7.95841L17.0031 7.92112L17.0031 7.92112L17.0032 7.92009L17.0034 7.91707C17.0038 7.91169 17.0044 7.90103 17.0051 7.88545C17.0066 7.85425 17.0084 7.80358 17.0088 7.73624C17.0096 7.60115 17.0048 7.40147 16.9813 7.15927C16.9336 6.66942 16.8122 6.03585 16.5284 5.41665C16.248 4.8048 15.8144 4.21685 15.1355 3.77646C14.4575 3.33671 13.4671 3 12 3C10.5329 3 9.54246 3.33671 8.8645 3.77646C8.18557 4.21685 7.752 4.8048 7.47156 5.41665C7.18776 6.03585 7.06637 6.66942 7.01874 7.15927C6.9952 7.40147 6.99039 7.60115 6.99119 7.73624C6.99159 7.80358 6.99339 7.85425 6.99486 7.88545C6.99559 7.90103 6.99625 7.91169 6.9966 7.91707L6.99681 7.92009L7 7.95841V8V12V12.4142L6.70711 12.7071L5 14.4142V16H8H9H15H16Z" fill="black"/>
</svg>
