<svg width="30" height="30" viewBox="0 0 30 30" fill="none" xmlns="http://www.w3.org/2000/svg">
<path d="M24.1573 7.22215C25 8.48327 25 10.2388 25 13.75C25 17.2612 25 19.0167 24.1573 20.2779C23.7926 20.8238 23.3238 21.2926 22.7779 21.6573C21.6762 22.3935 20.1971 22.4865 17.5 22.4983V22.5L16.118 25.2639C15.6574 26.1852 14.3426 26.1852 13.882 25.2639L12.5 22.5V22.4983C9.80287 22.4865 8.32384 22.3935 7.22215 21.6573C6.6762 21.2926 6.20744 20.8238 5.84265 20.2779C5 19.0167 5 17.2612 5 13.75C5 10.2388 5 8.48327 5.84265 7.22215C6.20744 6.6762 6.6762 6.20744 7.22215 5.84265C8.48327 5 10.2388 5 13.75 5H16.25C19.7612 5 21.5167 5 22.7779 5.84265C23.3238 6.20744 23.7926 6.6762 24.1573 7.22215Z" stroke="black" stroke-width="2" stroke-linecap="round" stroke-linejoin="round"/>
<path d="M11.25 11.25L18.75 11.25" stroke="black" stroke-width="2" stroke-linecap="round" stroke-linejoin="round"/>
<path d="M11.25 16.25H15" stroke="black" stroke-width="2" stroke-linecap="round" stroke-linejoin="round"/>
</svg>
