<svg width="20" height="20" viewBox="0 0 20 20" fill="none" xmlns="http://www.w3.org/2000/svg">
<path d="M15.9679 4.29821C16.8259 4.93726 17.4218 5.38204 17.8634 5.76974C18.2939 6.1477 18.5211 6.4241 18.6676 6.69941C18.9732 7.27355 19 7.93274 19 9.95116V11.4425C19 13.4924 18.9971 14.9126 18.8291 15.9823C18.6683 17.0052 18.376 17.5672 17.8854 17.987C17.3722 18.4261 16.6482 18.7031 15.3721 18.8499C14.081 18.9984 12.3813 19 10 19C7.6187 19 5.91896 18.9984 4.62794 18.8499C3.35176 18.7031 2.62775 18.4261 2.11465 17.987C1.62402 17.5672 1.33166 17.0052 1.17094 15.9823C1.00288 14.9126 1 13.4924 1 11.4425L1 9.95116C1 7.93274 1.02685 7.27355 1.33235 6.69941C1.47885 6.4241 1.7061 6.1477 2.13659 5.76974C2.57818 5.38204 3.17409 4.93726 4.03209 4.29821C5.61608 3.11843 6.73442 2.28755 7.68662 1.74156C8.61292 1.21043 9.29825 1 10 1C10.7017 1 11.3871 1.21043 12.3134 1.74156C13.2656 2.28755 14.3839 3.11843 15.9679 4.29821Z" stroke="white" stroke-width="2"/>
</svg>
