<svg width="30" height="30" viewBox="0 0 30 30" fill="none" xmlns="http://www.w3.org/2000/svg">
<path fill-rule="evenodd" clip-rule="evenodd" d="M23.2978 6.68315C22.9189 6.75055 22.3817 6.92686 21.5215 7.21358L12.4591 10.2344C10.8285 10.7779 9.67665 11.163 8.88306 11.5146C8.4897 11.6888 8.23369 11.8341 8.07126 11.9562C7.93185 12.0611 7.90003 12.1201 7.89665 12.1272C7.80051 12.3665 7.80052 12.6336 7.89668 12.8729C7.89324 12.8643 7.9124 12.9242 8.07126 13.0437C8.23369 13.1659 8.4897 13.3111 8.88306 13.4854C9.67665 13.8369 10.8285 14.2221 12.4591 14.7656C12.4962 14.778 12.533 14.7902 12.5695 14.8023C13.1041 14.9797 13.5758 15.1363 13.969 15.4312C14.1963 15.6017 14.3983 15.8037 14.5688 16.031C14.8637 16.4242 15.0203 16.8959 15.1977 17.4305C15.2098 17.467 15.222 17.5038 15.2344 17.5409C15.7779 19.1715 16.1631 20.3233 16.5146 21.1169C16.6889 21.5103 16.8341 21.7663 16.9563 21.9287C17.0757 22.0876 17.1357 22.1067 17.1271 22.1033C17.3664 22.1995 17.6336 22.1995 17.8729 22.1033C17.8643 22.1067 17.9243 22.0876 18.0437 21.9287C18.1659 21.7663 18.3111 21.5103 18.4854 21.1169C18.8369 20.3233 19.2221 19.1715 19.7656 17.5409L22.7864 8.4785C23.0731 7.61832 23.2494 7.0811 23.3168 6.70219C23.3182 6.6943 23.3196 6.68663 23.3208 6.67916C23.3134 6.68042 23.3057 6.68175 23.2978 6.68315ZM23.5568 6.66004C23.5566 6.66022 23.5533 6.65995 23.5475 6.65868C23.5541 6.65922 23.557 6.65985 23.5568 6.66004ZM23.3413 6.45245C23.34 6.44671 23.3398 6.44343 23.34 6.44322C23.3401 6.44302 23.3408 6.44588 23.3413 6.45245ZM22.9475 4.71406C23.4985 4.61605 24.253 4.58686 24.8331 5.16691C25.4131 5.74697 25.3839 6.50148 25.2859 7.05247C25.1896 7.5939 24.9632 8.27302 24.7077 9.03931L24.6838 9.11095L21.663 18.1734L21.6444 18.229C21.1236 19.7915 20.709 21.0352 20.314 21.927C19.9424 22.7658 19.4589 23.6214 18.6186 23.9591C17.9008 24.2476 17.0992 24.2476 16.3814 23.9591C15.5411 23.6214 15.0576 22.7658 14.686 21.927C14.291 21.0352 13.8764 19.7916 13.3556 18.229L13.337 18.1734C13.1009 17.465 13.0433 17.3304 12.9688 17.2311C12.912 17.1553 12.8447 17.088 12.7689 17.0312C12.6696 16.9567 12.535 16.8991 11.8266 16.663L11.771 16.6444C10.2084 16.1236 8.96477 15.709 8.07301 15.314C7.2342 14.9424 6.37858 14.4589 6.04092 13.6186C5.75243 12.9008 5.75243 12.0992 6.04092 11.3813C6.37858 10.5411 7.2342 10.0576 8.07301 9.68598C8.96478 9.29095 10.2084 8.8764 11.771 8.35557L11.8266 8.33702L20.889 5.31622L20.9607 5.29233C21.727 5.03682 22.4061 4.81038 22.9475 4.71406Z" fill="black"/>
</svg>
